<?xml version="1.0" encoding="utf-8"?><svg viewBox="0 0 446 113" xmlns="http://www.w3.org/2000/svg" xmlns:xlink="http://www.w3.org/1999/xlink"><style>:root>svg{display:none}:root>svg:target{display:block}</style><svg viewBox="0 0 329 113" id="cloud-1" xmlns="http://www.w3.org/2000/svg"><g clip-path="url(#aa)"><path d="M154.336 0c-9.288 0-17.484 2.827-22.377 7.155a44.698 44.698 0 0 0-3.051-.122h-.163c-9.037 0-17.047 2.683-21.981 6.815-1.849.204-3.68.414-5.495.64-4.19-1.64-9.182-2.608-14.53-2.626h-.14c-5.4 0-10.44.972-14.67 2.625a43.441 43.441 0 0 0-8.523-.857h-.14c-12.12 0-22.412 4.823-25.892 11.495-11.738.666-21.307 5.883-23.891 12.718C5.458 40.685.058 45.957 0 52.004c-.033 3.53 1.755 6.814 4.844 9.509-.702 1.449-1.08 2.971-1.095 4.557-.078 8.239 9.83 15.124 22.82 16.391a10.224 10.224 0 0 0-.233 2.081c-.086 9.102 12.007 16.53 26.988 16.582 7.15.025 13.66-1.635 18.535-4.366 1.939.404 3.913.805 5.915 1.183 4.865 4.29 12.995 7.11 22.214 7.142 4.928.017 9.554-.766 13.552-2.149.524.049 1.057.087 1.583.136 4.85 2.856 11.439 4.626 18.722 4.652 5.611.019 10.836-1.002 15.182-2.762 1.469.032 2.944.062 4.424.082 4.942 3.753 12.53 6.173 21.05 6.203 9.581.033 18.016-2.967 22.89-7.509 3.502-.258 6.956-.542 10.362-.87 3.538 1.548 7.716 2.587 12.248 2.951 4.86 4.31 12.993 7.15 22.237 7.183 12.246.042 22.664-4.855 26.103-11.617a44.5 44.5 0 0 0 4.005.19c.468.002.935-.014 1.397-.027.463-.013.918-.028 1.374-.054 9.213-.537 17.112-3.882 21.306-8.611 1.707.211 3.479.32 5.286.326 14.981.053 27.204-7.29 27.291-16.391.048-5.166-3.822-9.796-9.92-12.841 2.914-2.61 4.625-5.753 4.657-9.142.048-5.032-3.627-9.55-9.454-12.596.265-.908.41-1.836.419-2.788.086-9.102-12.006-16.544-26.987-16.596h-.163c-5.419 0-10.455.975-14.694 2.639-.65-.205-1.293-.41-1.955-.612-3.79-6.277-13.689-10.774-25.335-10.814h-.163c-4.844 0-9.38.77-13.319 2.121C229.53 8.742 218.702 3.12 205.68 3.075h-.163c-8.396 0-15.907 2.316-20.887 5.958-2.375-.787-4.969-1.358-7.707-1.686C172.085 2.942 163.862.033 154.499 0h-.163Z" fill-opacity=".3"/><path d="M154.797 4.74c-8.867 0-16.691 2.59-21.362 6.554a44.497 44.497 0 0 0-2.912-.112h-.156c-8.628 0-16.274 2.458-20.984 6.243-1.766.188-3.513.38-5.246.586-3.999-1.502-8.766-2.388-13.871-2.405h-.134c-5.155 0-9.966.89-14.004 2.405a43.153 43.153 0 0 0-8.136-.785h-.133c-11.571 0-21.396 4.419-24.719 10.53-11.205.61-20.34 5.39-22.807 11.652-7.66 2.604-12.816 7.434-12.87 12.973-.033 3.235 1.674 6.243 4.623 8.711-.67 1.328-1.03 2.723-1.045 4.175-.074 7.548 9.384 13.856 21.785 15.016a9.01 9.01 0 0 0-.223 1.907c-.082 8.339 11.462 15.143 25.764 15.191 6.825.023 13.04-1.498 17.694-4 1.851.37 3.736.737 5.646 1.084 4.645 3.93 12.407 6.513 21.207 6.543 4.705.015 9.121-.702 12.938-1.97.5.046 1.008.081 1.511.125 4.629 2.617 10.92 4.239 17.872 4.262 5.357.018 10.345-.918 14.494-2.53 1.402.03 2.81.057 4.223.075 4.718 3.438 11.962 5.656 20.095 5.683 9.147.031 17.199-2.718 21.852-6.88a455.33 455.33 0 0 0 9.892-.797c3.378 1.418 7.366 2.371 11.692 2.705 4.64 3.948 12.404 6.55 21.229 6.579 11.691.04 21.636-4.447 24.919-10.642 1.249.112 2.521.17 3.823.174.447.002.893-.013 1.334-.025.442-.011.876-.025 1.312-.05 8.795-.49 16.335-3.555 20.339-7.888a44.09 44.09 0 0 0 5.046.3c14.302.047 25.971-6.679 26.053-15.017.047-4.733-3.648-8.974-9.47-11.764 2.782-2.392 4.415-5.27 4.446-8.375.046-4.61-3.463-8.75-9.025-11.54a9.055 9.055 0 0 0 .4-2.554c.082-8.339-11.462-15.156-25.763-15.204h-.156c-5.173 0-9.98.894-14.027 2.418-.62-.188-1.235-.376-1.867-.56-3.618-5.751-13.067-9.87-24.185-9.908h-.156c-4.625 0-8.955.705-12.715 1.944-2.439-6.822-12.777-11.972-25.208-12.013h-.155c-8.016 0-15.186 2.121-19.94 5.458-2.267-.722-4.744-1.245-7.358-1.545-4.618-4.034-12.468-6.7-21.406-6.73h-.156Z" fill-opacity=".6"/><path d="M154.797 4.74c-8.867 0-16.691 2.59-21.362 6.554a44.497 44.497 0 0 0-2.912-.112h-.156c-8.628 0-16.274 2.458-20.984 6.243-1.766.188-3.513.38-5.246.586-3.999-1.502-8.766-2.388-13.871-2.405h-.134c-5.155 0-9.966.89-14.004 2.405a43.153 43.153 0 0 0-8.136-.785h-.133c-11.571 0-21.396 4.419-24.719 10.53-11.205.61-20.34 5.39-22.807 11.652-7.66 2.604-12.816 7.434-12.87 12.973-.033 3.235 1.674 6.243 4.623 8.711-.67 1.328-1.03 2.723-1.045 4.175-.074 7.548 9.384 13.856 21.785 15.016a9.01 9.01 0 0 0-.223 1.907c-.082 8.339 11.462 15.143 25.764 15.191 6.825.023 13.04-1.498 17.694-4 1.851.37 3.736.737 5.646 1.084 4.645 3.93 12.407 6.513 21.207 6.543 4.705.015 9.121-.702 12.938-1.97.5.046 1.008.081 1.511.125 4.629 2.617 10.92 4.239 17.872 4.262 5.357.018 10.345-.918 14.494-2.53 1.402.03 2.81.057 4.223.075 4.718 3.438 11.962 5.656 20.095 5.683 9.147.031 17.199-2.718 21.852-6.88a455.33 455.33 0 0 0 9.892-.797c3.378 1.418 7.366 2.371 11.692 2.705 4.64 3.948 12.404 6.55 21.229 6.579 11.691.04 21.636-4.447 24.919-10.642 1.249.112 2.521.17 3.823.174.447.002.893-.013 1.334-.025.442-.011.876-.025 1.312-.05 8.795-.49 16.335-3.555 20.339-7.888a44.09 44.09 0 0 0 5.046.3c14.302.047 25.971-6.679 26.053-15.017.047-4.733-3.648-8.974-9.47-11.764 2.782-2.392 4.415-5.27 4.446-8.375.046-4.61-3.463-8.75-9.025-11.54a9.055 9.055 0 0 0 .4-2.554c.082-8.339-11.462-15.156-25.763-15.204h-.156c-5.173 0-9.98.894-14.027 2.418-.62-.188-1.235-.376-1.867-.56-3.618-5.751-13.067-9.87-24.185-9.908h-.156c-4.625 0-8.955.705-12.715 1.944-2.439-6.822-12.777-11.972-25.208-12.013h-.155c-8.016 0-15.186 2.121-19.94 5.458-2.267-.722-4.744-1.245-7.358-1.545-4.618-4.034-12.468-6.7-21.406-6.73h-.156Z" fill-opacity=".2"/></g><defs><clipPath id="aa"><path d="M0 0h329v113H0z"/></clipPath></defs></svg><svg viewBox="0 0 446 102" id="cloud-2" xmlns="http://www.w3.org/2000/svg"><g clip-path="url(#ba)"><path d="M209.221 0c-12.591 0-23.701 2.552-30.335 6.459a90.841 90.841 0 0 0-4.135-.11h-.221c-12.252 0-23.11 2.421-29.798 6.15a865.5 865.5 0 0 0-7.45.578c-5.678-1.48-12.447-2.353-19.697-2.37h-.19c-7.32 0-14.153.878-19.886 2.37a87.584 87.584 0 0 0-11.554-.774h-.189c-16.43 0-30.383 4.354-35.102 10.376-15.91.601-28.883 5.31-32.387 11.48C7.4 36.726.078 41.485.001 46.943c-.046 3.187 2.378 6.15 6.565 8.583-.95 1.308-1.463 2.682-1.483 4.113-.106 7.437 13.326 13.652 30.935 14.796a6.31 6.31 0 0 0-.316 1.879c-.117 8.215 16.276 14.92 36.585 14.967 9.692.023 18.518-1.476 25.127-3.941 2.628.365 5.305.727 8.018 1.068 6.595 3.872 17.617 6.417 30.114 6.447 6.681.015 12.951-.692 18.371-1.94.711.044 1.433.079 2.147.122 6.574 2.579 15.507 4.177 25.379 4.2 7.607.017 14.69-.905 20.581-2.493 1.992.029 3.991.056 5.998.074 6.699 3.387 16.985 5.572 28.536 5.599 12.987.03 24.423-2.678 31.029-6.778 4.748-.233 9.43-.49 14.047-.786 4.798 1.397 10.461 2.336 16.604 2.665 6.589 3.89 17.614 6.454 30.146 6.483 16.601.038 30.724-4.383 35.385-10.486 1.775.11 3.581.167 5.43.172.634.001 1.267-.014 1.894-.025a90.12 90.12 0 0 0 1.862-.05c12.49-.483 23.197-3.502 28.883-7.772 2.314.19 4.716.29 7.166.295 20.309.047 36.879-6.58 36.995-14.796.067-4.663-5.18-8.842-13.447-11.59 3.95-2.357 6.27-5.193 6.313-8.252.065-4.543-4.917-8.621-12.816-11.37.359-.82.556-1.657.569-2.518.116-8.215-16.277-14.932-36.586-14.98h-.22c-7.346 0-14.173.88-19.919 2.382-.881-.184-1.754-.37-2.651-.552-5.137-5.666-18.557-9.725-34.344-9.762h-.221c-6.568 0-12.717.695-18.056 1.916-3.464-6.722-18.144-11.796-35.796-11.837h-.221c-11.382 0-21.564 2.09-28.315 5.378-3.219-.71-6.736-1.226-10.448-1.522C233.283 2.656 222.135.03 209.442 0h-.221Z" fill-opacity=".3"/><path d="M209.846 4.278c-12.02 0-22.626 2.338-28.959 5.917a90.407 90.407 0 0 0-3.947-.101h-.211c-11.696 0-22.062 2.218-28.447 5.635-2.393.17-4.762.343-7.112.529-5.42-1.356-11.882-2.156-18.804-2.171h-.18c-6.989 0-13.511.804-18.985 2.17-3.46-.452-7.181-.7-11.03-.708h-.18c-15.686 0-29.005 3.989-33.51 9.506-15.189.55-27.573 4.864-30.917 10.517-10.385 2.35-17.374 6.71-17.448 11.71-.043 2.92 2.27 5.635 6.268 7.863-.908 1.198-1.397 2.457-1.417 3.768-.1 6.814 12.722 12.508 29.532 13.555a5.57 5.57 0 0 0-.301 1.721c-.112 7.527 15.538 13.67 34.926 13.713 9.252.02 17.677-1.353 23.986-3.611 2.51.334 5.065.665 7.655.978 6.296 3.548 16.818 5.88 28.748 5.906 6.378.014 12.364-.634 17.538-1.777.678.04 1.368.072 2.049.112 6.276 2.362 14.803 3.826 24.228 3.847 7.262.017 14.024-.828 19.648-2.283 1.901.026 3.81.051 5.725.067 6.395 3.103 16.215 5.105 27.242 5.13 12.398.027 23.315-2.454 29.622-6.21 4.532-.213 9.002-.448 13.41-.72 4.579 1.28 9.986 2.14 15.85 2.441 6.291 3.565 16.815 5.913 28.779 5.94 15.848.035 29.33-4.015 33.78-9.607 1.694.102 3.418.154 5.183.158.606.001 1.21-.012 1.808-.023.599-.01 1.188-.023 1.778-.045 11.923-.443 22.145-3.21 27.573-7.12 2.209.174 4.502.265 6.841.27 19.387.043 35.206-6.028 35.317-13.555.063-4.272-4.946-8.1-12.837-10.619 3.771-2.159 5.985-4.757 6.027-7.56.061-4.16-4.695-7.897-12.235-10.416.342-.75.531-1.517.543-2.305.111-7.527-15.538-13.68-34.926-13.724h-.211c-7.012 0-13.53.807-19.015 2.182-.841-.17-1.674-.34-2.531-.506-4.904-5.19-17.715-8.91-32.786-8.943h-.211c-6.27 0-12.14.637-17.237 1.755-3.307-6.158-17.321-10.806-34.172-10.844h-.211c-10.866 0-20.586 1.915-27.031 4.927-3.073-.651-6.431-1.123-9.974-1.395-6.261-3.641-16.902-6.047-29.02-6.074h-.211Z" fill-opacity=".6"/><path d="M209.846 4.278c-12.02 0-22.626 2.338-28.959 5.917a90.407 90.407 0 0 0-3.947-.101h-.211c-11.696 0-22.062 2.218-28.447 5.635-2.393.17-4.762.343-7.112.529-5.42-1.356-11.882-2.156-18.804-2.171h-.18c-6.989 0-13.511.804-18.985 2.17-3.46-.452-7.181-.7-11.03-.708h-.18c-15.686 0-29.005 3.989-33.51 9.506-15.189.55-27.573 4.864-30.917 10.517-10.385 2.35-17.374 6.71-17.448 11.71-.043 2.92 2.27 5.635 6.268 7.863-.908 1.198-1.397 2.457-1.417 3.768-.1 6.814 12.722 12.508 29.532 13.555a5.57 5.57 0 0 0-.301 1.721c-.112 7.527 15.538 13.67 34.926 13.713 9.252.02 17.677-1.353 23.986-3.611 2.51.334 5.065.665 7.655.978 6.296 3.548 16.818 5.88 28.748 5.906 6.378.014 12.364-.634 17.538-1.777.678.04 1.368.072 2.049.112 6.276 2.362 14.803 3.826 24.228 3.847 7.262.017 14.024-.828 19.648-2.283 1.901.026 3.81.051 5.725.067 6.395 3.103 16.215 5.105 27.242 5.13 12.398.027 23.315-2.454 29.622-6.21 4.532-.213 9.002-.448 13.41-.72 4.579 1.28 9.986 2.14 15.85 2.441 6.291 3.565 16.815 5.913 28.779 5.94 15.848.035 29.33-4.015 33.78-9.607 1.694.102 3.418.154 5.183.158.606.001 1.21-.012 1.808-.023.599-.01 1.188-.023 1.778-.045 11.923-.443 22.145-3.21 27.573-7.12 2.209.174 4.502.265 6.841.27 19.387.043 35.206-6.028 35.317-13.555.063-4.272-4.946-8.1-12.837-10.619 3.771-2.159 5.985-4.757 6.027-7.56.061-4.16-4.695-7.897-12.235-10.416.342-.75.531-1.517.543-2.305.111-7.527-15.538-13.68-34.926-13.724h-.211c-7.012 0-13.53.807-19.015 2.182-.841-.17-1.674-.34-2.531-.506-4.904-5.19-17.715-8.91-32.786-8.943h-.211c-6.27 0-12.14.637-17.237 1.755-3.307-6.158-17.321-10.806-34.172-10.844h-.211c-10.866 0-20.586 1.915-27.031 4.927-3.073-.651-6.431-1.123-9.974-1.395-6.261-3.641-16.902-6.047-29.02-6.074h-.211Z" fill-opacity=".2"/></g><defs><clipPath id="ba"><path d="M0 0h446v102H0z"/></clipPath></defs></svg></svg>